<?xml version="1.0" encoding="UTF-8" standalone="no"?>
<svg
   xmlns:dc="http://purl.org/dc/elements/1.1/"
   xmlns:cc="http://creativecommons.org/ns#"
   xmlns:rdf="http://www.w3.org/1999/02/22-rdf-syntax-ns#"
   xmlns:svg="http://www.w3.org/2000/svg"
   xmlns="http://www.w3.org/2000/svg"
   xmlns:sodipodi="http://sodipodi.sourceforge.net/DTD/sodipodi-0.dtd"
   xmlns:inkscape="http://www.inkscape.org/namespaces/inkscape"
   version="1.1"
   id="svg2"
   xml:space="preserve"
   width="392.09332"
   height="254.06667"
   viewBox="0 0 392.09332 254.06667"
   sodipodi:docname="WSU-lockup-vert-rgb.eps"><metadata
     id="metadata8"><rdf:RDF><cc:Work
         rdf:about=""><dc:format>image/svg+xml</dc:format><dc:type
           rdf:resource="http://purl.org/dc/dcmitype/StillImage" /></cc:Work></rdf:RDF></metadata><defs
     id="defs6" /><sodipodi:namedview
     pagecolor="#ffffff"
     bordercolor="#666666"
     borderopacity="1"
     objecttolerance="10"
     gridtolerance="10"
     guidetolerance="10"
     inkscape:pageopacity="0"
     inkscape:pageshadow="2"
     inkscape:window-width="640"
     inkscape:window-height="480"
     id="namedview4" /><g
     id="g10"
     inkscape:groupmode="layer"
     inkscape:label="ink_ext_XXXXXX"
     transform="matrix(1.3333333,0,0,-1.3333333,0,254.06667)"><g
       id="g12"
       transform="scale(0.1)"><path
         d="m 403.047,51.8984 c 0,-19.7187 -10.973,-32.5468 -31.621,-32.5468 -20.828,0 -31.801,12.8281 -31.801,32.5468 V 126.309 H 317.66 V 51.1602 C 317.66,20.6484 335.336,0 371.426,0 c 35.91,0 53.578,20.4609 53.578,51.3398 V 126.309 H 403.047 V 51.8984"
         style="fill:#464648;fill-opacity:1;fill-rule:nonzero;stroke:none"
         id="path14" /><path
         d="m 659.055,40.1797 -63.442,86.1293 h -22.32 V 2.23047 h 21.762 V 90.7891 L 659.797,2.23047 h 21.019 V 126.309 H 659.055 V 40.1797"
         style="fill:#464648;fill-opacity:1;fill-rule:nonzero;stroke:none"
         id="path16" /><path
         d="m 854.984,2.23047 h 21.762 V 126.309 H 854.984 V 2.23047"
         style="fill:#464648;fill-opacity:1;fill-rule:nonzero;stroke:none"
         id="path18" /><path
         d="M 1104.68,25.8516 1067.1,126.309 h -24.74 L 1091.1,2.23047 h 27.16 L 1167,126.309 h -24.74 L 1104.68,25.8516"
         style="fill:#464648;fill-opacity:1;fill-rule:nonzero;stroke:none"
         id="path20" /><path
         d="m 1317.9,2.23047 h 85.01 V 21.3906 h -63.25 v 34.418 h 53.49 v 19.1602 h -53.49 v 32.1792 h 63.25 v 19.161 H 1317.9 V 2.23047"
         style="fill:#464648;fill-opacity:1;fill-rule:nonzero;stroke:none"
         id="path22" /><path
         d="m 1848.88,93.3789 c 0,9.3121 8.18,15.4411 21.01,15.4411 13.03,0 26.23,-4.461 35.9,-14.1286 l 12.47,16.1796 c -11.53,11.168 -27.17,17.301 -46.51,17.301 -27.15,0 -45.2,-15.813 -45.2,-36.2736 0,-45.7578 72.37,-29.5781 72.37,-55.6289 0,-8.1797 -7.08,-16.9179 -24.93,-16.9179 -17.31,0 -30.7,7.9882 -39.26,17.1093 L 1822.65,19.7188 C 1833.61,8 1850.18,0 1873.06,0 c 33.47,0 47.99,17.6719 47.99,38.332 0,46.3086 -72.17,31.9883 -72.17,55.0469"
         style="fill:#464648;fill-opacity:1;fill-rule:nonzero;stroke:none"
         id="path24" /><path
         d="m 2099.78,2.23047 h 21.76 V 126.309 h -21.76 V 2.23047"
         style="fill:#464648;fill-opacity:1;fill-rule:nonzero;stroke:none"
         id="path26" /><path
         d="m 2301.02,107.148 h 37.56 V 2.23047 h 21.77 V 107.148 h 37.59 v 19.161 h -96.92 v -19.161"
         style="fill:#464648;fill-opacity:1;fill-rule:nonzero;stroke:none"
         id="path28" /><path
         d="m 2596.92,73.1094 -34.22,53.1996 h -24.93 l 48.18,-72.5473 V 2.23047 h 21.76 V 53.7617 l 48,72.5473 h -24.93 l -33.86,-53.1996"
         style="fill:#464648;fill-opacity:1;fill-rule:nonzero;stroke:none"
         id="path30" /><path
         d="m 1596.14,67.7109 v 39.4371 h 29.77 c 12.28,0 21.2,-7.8082 21.2,-19.7066 0,-11.9101 -8.92,-19.7305 -21.2,-19.7305 z m 78.64,-65.48043 -30.91,49.67973 c 13.44,3.7109 25.57,15.289 25.57,35.5312 0,22.8786 -15.99,38.8676 -40.55,38.8676 h -54.51 V 2.23047 h 21.76 V 48.5508 h 26 l 27.52,-46.32033 h 25.12"
         style="fill:#464648;fill-opacity:1;fill-rule:nonzero;stroke:none"
         id="path32" /><path
         d="m 529.77,360.879 c 0,12.18 10.347,20.391 28.906,20.391 20.699,0 42.613,-7 59.043,-22.211 l 24.043,31.652 c -20.086,18.559 -46.864,28.309 -79.121,28.309 -47.782,0 -77,-28.008 -77,-61.79 0,-76.39 116.863,-51.742 116.863,-87.64 0,-11.57 -11.566,-22.52 -35.309,-22.52 -27.996,0 -50.203,12.481 -64.515,27.391 L 479.254,241.59 c 18.859,-19.168 46.859,-32.262 85.812,-32.262 54.782,0 81.262,28 81.262,65.133 0,75.769 -116.558,54.168 -116.558,86.418"
         style="fill:#464648;fill-opacity:1;fill-rule:nonzero;stroke:none"
         id="path34" /><path
         d="m 813.203,336.238 h -95.855 v 79.731 H 674.133 V 212.98 h 43.215 v 85.211 h 95.855 V 212.98 h 43.52 v 202.989 h -43.52 v -79.731"
         style="fill:#464648;fill-opacity:1;fill-rule:nonzero;stroke:none"
         id="path36" /><path
         d="M 895.855,212.98 H 939.07 V 415.969 H 895.855 V 212.98"
         style="fill:#464648;fill-opacity:1;fill-rule:nonzero;stroke:none"
         id="path38" /><path
         d="m 1119.63,288.449 -94.04,127.52 H 981.16 V 212.98 h 43.22 v 132.391 l 96.77,-132.391 h 41.7 v 202.989 h -43.22 v -127.52"
         style="fill:#464648;fill-opacity:1;fill-rule:nonzero;stroke:none"
         id="path40" /><path
         d="m 1401.78,377.93 h 59.35 V 212.98 h 43.52 v 164.95 h 59.04 v 38.039 H 1401.78 V 377.93"
         style="fill:#464648;fill-opacity:1;fill-rule:nonzero;stroke:none"
         id="path42" /><path
         d="m 1667.85,247.672 c -37.42,0 -61.46,28.918 -61.46,66.648 0,38.051 24.04,66.649 61.46,66.649 37.43,0 61.79,-28.598 61.79,-66.649 0,-37.73 -24.36,-66.648 -61.79,-66.648 z m 0,171.637 c -61.16,0 -105.91,-43.821 -105.91,-104.989 0,-61.172 44.75,-104.992 105.91,-104.992 61.48,0 106.21,43.82 106.21,104.992 0,61.168 -44.73,104.989 -106.21,104.989"
         style="fill:#464648;fill-opacity:1;fill-rule:nonzero;stroke:none"
         id="path44" /><path
         d="m 1979.32,212.98 v 202.989 h -43.22 v -127.52 l -94.04,127.52 h -44.43 V 212.98 h 43.22 v 132.391 l 96.77,-132.391 h 41.7"
         style="fill:#464648;fill-opacity:1;fill-rule:nonzero;stroke:none"
         id="path46" /><path
         d="m 2181.52,360.879 c 0,12.18 10.36,20.391 28.91,20.391 20.7,0 42.62,-7 59.04,-22.211 l 24.05,31.652 c -20.09,18.559 -46.87,28.309 -79.13,28.309 -47.78,0 -77,-28.008 -77,-61.79 0,-76.39 116.87,-51.742 116.87,-87.64 0,-11.57 -11.56,-22.52 -35.3,-22.52 -28,0 -50.21,12.481 -64.53,27.391 l -23.42,-32.871 c 18.86,-19.168 46.86,-32.262 85.82,-32.262 54.77,0 81.26,28 81.26,65.133 0,75.769 -116.57,54.168 -116.57,86.418"
         style="fill:#464648;fill-opacity:1;fill-rule:nonzero;stroke:none"
         id="path48" /><path
         d="M 2468.97,415.969 H 2307.06 V 377.93 h 59.35 V 212.98 h 43.52 v 164.95 h 59.04 v 38.039"
         style="fill:#464648;fill-opacity:1;fill-rule:nonzero;stroke:none"
         id="path50" /><path
         d="m 2719.12,212.98 v 164.95 h 59.04 v 38.039 h -161.9 V 377.93 h 59.35 V 212.98 h 43.51"
         style="fill:#464648;fill-opacity:1;fill-rule:nonzero;stroke:none"
         id="path52" /><path
         d="m 2940.66,377.93 v 38.039 H 2797.02 V 212.98 h 143.64 v 38.04 h -100.42 v 45.96 h 89.84 v 38.032 h -89.84 v 42.918 h 100.42"
         style="fill:#464648;fill-opacity:1;fill-rule:nonzero;stroke:none"
         id="path54" /><path
         d="m 355.023,296.051 22.926,68.679 22.926,-68.679 z M 403.852,415.68 H 352.055 L 279.727,212.66 h 48.902 l 14.367,41.981 h 69.965 L 426.98,212.66 h 48.911 l -72.039,203.02"
         style="fill:#464648;fill-opacity:1;fill-rule:nonzero;stroke:none"
         id="path56" /><path
         d="m 2519.63,296.051 22.92,68.668 22.93,-68.668 z m 48.83,119.621 h -51.8 L 2444.34,212.68 h 48.89 l 14.37,41.961 h 69.96 l 14.03,-41.961 h 48.91 l -72.04,202.992"
         style="fill:#464648;fill-opacity:1;fill-rule:nonzero;stroke:none"
         id="path58" /><path
         d="m 1401.82,333.738 h -101.59 v -37.859 h 56.7 c -6.63,-28.301 -28.62,-48.207 -59.66,-48.207 -37.43,0 -61.47,28.918 -61.47,66.648 0,38.051 24.04,66.649 61.47,66.649 22.15,0 39.66,-10.071 50.32,-26.117 l 37.81,20.507 c -18.6,27.2 -50.15,43.95 -88.13,43.95 -61.16,0 -105.9,-43.821 -105.9,-104.989 0,-61.172 44.74,-104.992 105.9,-104.992 55.09,0 96.62,35.242 104.69,86.551 0.93,5.961 1.52,12.082 1.52,18.441 0,6.711 -0.62,13.16 -1.66,19.418"
         style="fill:#464648;fill-opacity:1;fill-rule:nonzero;stroke:none"
         id="path60" /><path
         d="m 262.516,415.672 -47.262,-132.57 -42.613,132.57 H 135.953 L 93.168,282.93 46.332,414.32 45.9102,415.672 H 0 L 72.2578,212.68 h 44.3512 l 37.606,117.269 37.703,-117.269 h 44.137 l 72.457,202.992 h -45.996"
         style="fill:#464648;fill-opacity:1;fill-rule:nonzero;stroke:none"
         id="path62" /><path
         d="m 1689.65,625.52 c 0,0 65.35,27.902 101.17,135.96 31.55,-65.851 23.31,-133.558 23.31,-133.558 -28.93,-6.492 -124.48,-2.402 -124.48,-2.402"
         style="fill:#a4192e;fill-opacity:1;fill-rule:nonzero;stroke:none"
         id="path64" /><path
         d="m 2040.7,1243.53 c 0,0 39.87,-217.2 -101.33,-224.62 -136.23,-7.1 -200.39,197.75 -200.39,197.75 0,0 32.93,-400.32 223.92,-373.949 215.01,29.648 77.8,400.819 77.8,400.819"
         style="fill:#a4192e;fill-opacity:1;fill-rule:nonzero;stroke:none"
         id="path66" /><path
         d="m 1003.53,677.191 c 0.1,0.059 0.21,0.059 0.21,0.059 159.21,36.25 281.25,222.051 317.01,296.637 l 22.77,47.223 13.7,-50.551 c 0.66,-2.731 15.5,-58.532 15.5,-132.137 0,-8.192 -0.21,-16.543 -0.65,-25 54.93,-2.082 94.13,9.058 118.54,34.398 35,36.141 45.47,104.664 32.49,209.39 -6.45,50.12 -24.96,129.84 -41.39,200.21 -8.41,35.98 -16.33,70 -21.13,94.08 -30.69,153.86 7.42,249.41 44.77,302.43 5.95,8.35 12.34,16.27 19.11,23.69 -110.24,-37.01 -202.62,-94.67 -297.95,-189.89 l 67.04,-77.75 27.42,25.66 c 25.98,-96.59 7.31,-185.53 7.31,-185.53 -35.27,53.72 -76.87,97.29 -76.87,97.29 l 18.18,30.58 -60.44,70.21 -6.99,7.86 c -74.31,-102.04 -98.34,-185.52 -98.34,-185.52 l 52.69,-48.27 30.69,-27.79 10.31,29.59 c 56.73,-106.09 4.92,-205.24 4.92,-205.24 -9.28,36.14 -46.63,89.6 -46.63,89.6 l 14.74,48.65 -78.45,70.98 C 1010.51,973.23 901.531,890.68 901.531,890.68 c 0,0 117.879,21.234 183.559,43.297 0,0 -1.8,-134.317 -81.56,-256.786"
         style="fill:#a4192e;fill-opacity:1;fill-rule:nonzero;stroke:none"
         id="path68" /><path
         d="m 1648.09,1511.84 c 37.99,26.64 102.64,47.12 163.3,42.48 15.34,-1.15 28.34,2.89 11.79,11.62 -45.37,23.92 -151.13,15.78 -188.53,-9.71 -59.89,-40.84 -49.74,-113.63 -48.37,-115.37 11.95,20.85 32.21,50.28 61.81,70.98 m 545.77,84.68 -188.37,-7.97 c 0.12,-22.17 -2.83,-44.66 -10.04,-65.9 17.58,-76.88 5.35,-118.59 5.35,-118.59 -31.5,73.32 -55.48,93.69 -55.48,93.69 -173.03,76.82 -270.21,-96.91 -259.78,-209.01 8.46,-92.11 41.93,-214.35 67.98,-406.17 21.95,-161.39 -59.79,-231.172 -153.81,-247.16 -2.02,-0.281 -4.09,-0.66 -6.17,-1.101 -0.55,0 -0.98,0 -1.48,-0.11 -15.28,-1.969 -31.44,-2.777 -48.53,-2.398 -0.55,0.16 -1.26,0.16 -1.81,0.16 -1.91,0 -3.71,0.269 -5.62,0.269 -7.32,0.442 -14.53,1.2 -21.68,2.079 -73.16,10.101 -236.96,39.863 -406.16,43.961 99.53,58.082 177.39,158.71 220.85,229.968 2.51,-19.769 4.53,-43.847 4.53,-70.379 0,-13.218 -0.43,-27.14 -1.8,-41.339 l -1.63,-19.43 19.49,-1.641 c 77.85,-6.769 133.05,8.082 169.15,45.262 44.11,45.969 57.7,122.582 42.75,241.389 -6.44,52.08 -25.39,132.9 -41.93,204.15 -8.25,35.65 -16.06,69.5 -20.81,92.87 -28.01,140.38 5.47,225.61 38.49,272.34 25.73,36.59 61.37,63.45 100.47,76.33 0.66,0.12 1.31,0.28 2.01,0.39 l 64.33,197.32 h 20.2 l -43.19,-189.62 c 9.99,1.74 20.15,3.32 30.41,4.91 l 55.53,174.83 h 19.98 l -36.36,-169.32 c 57.49,7.38 119.85,13.11 188.97,18.19 11.19,-4.48 23.32,-17.42 33.96,-35.44 l 181.27,55.75 6.72,-19.55 -173.3,-67.21 c 1.37,-3.55 2.72,-7.26 3.82,-11.03 l 189.46,23.53 3.16,-20.31 -183.83,-36.69 c 0.65,-3.44 1.2,-6.88 1.8,-10.32 l 191.21,-6.17 -0.11,-20.53"
         style="fill:#a4192e;fill-opacity:1;fill-rule:nonzero;stroke:none"
         id="path70" /></g></g></svg>
